<?xml version="1.0" encoding="utf-8"?>
<!-- Generator: Adobe Illustrator 16.0.0, SVG Export Plug-In . SVG Version: 6.00 Build 0)  -->
<!DOCTYPE svg PUBLIC "-//W3C//DTD SVG 1.1//EN" "http://www.w3.org/Graphics/SVG/1.1/DTD/svg11.dtd">
<svg version="1.1" id="Layer_1" xmlns="http://www.w3.org/2000/svg" xmlns:xlink="http://www.w3.org/1999/xlink" x="0px" y="0px"
	 width="17.001px" height="17px" viewBox="0 0 17.001 17" enable-background="new 0 0 17.001 17" xml:space="preserve">
<g>
	<defs>
		<rect id="SVGID_1_" width="17.001" height="17"/>
	</defs>
	<clipPath id="SVGID_2_">
		<use xlink:href="#SVGID_1_"  overflow="visible"/>
	</clipPath>
	<path clip-path="url(#SVGID_2_)" fill="#444444" d="M17.001,1.239v9.941c0.001,0.329-0.13,0.646-0.362,0.878
		c-0.231,0.233-0.548,0.364-0.877,0.364h-1.64V5.048c0-1.196-0.973-2.17-2.166-2.17H4.579V1.239c0-0.329,0.131-0.644,0.363-0.876
		C5.175,0.13,5.491,0,5.82,0h9.941c0.328,0,0.645,0.131,0.876,0.363C16.87,0.595,17.001,0.91,17.001,1.239z"/>
	<path clip-path="url(#SVGID_2_)" fill="#444444" d="M11.437,4.578H0.985c-0.261,0-0.512,0.104-0.697,0.289
		C0.104,5.051,0,5.301,0,5.563v10.451c0,0.261,0.104,0.512,0.289,0.697c0.185,0.185,0.436,0.287,0.697,0.287h10.451
		c0.262,0,0.512-0.103,0.697-0.287c0.185-0.186,0.289-0.437,0.289-0.697V5.563c0-0.262-0.104-0.512-0.289-0.697
		C11.948,4.682,11.698,4.578,11.437,4.578z"/>
</g>
</svg>
